<svg width="40" height="40" viewBox="0 0 40 40" fill="none" xmlns="http://www.w3.org/2000/svg">
<g clip-path="url(#clip0)">
<path d="M19.2007 4.26064L17.9527 3.57931C17.578 3.37398 17.124 3.36198 16.738 3.54598L13.8853 4.90998L10.42 2.85998C10.272 2.77264 10.0947 2.74464 9.92932 2.78464L7.26266 3.40731C7.02732 3.46198 6.83999 3.63998 6.77332 3.87198C6.70666 4.10398 6.77066 4.35398 6.93999 4.52531L9.43132 7.03931L7.54132 7.94331L4.23332 6.70865C3.97599 6.61198 3.68732 6.68331 3.50466 6.88798C3.32132 7.09131 3.28199 7.38665 3.40399 7.63131L5.40332 11.6313C5.51666 11.8573 5.74732 12 5.99999 12H7.99999C8.11399 12 8.22599 11.9706 8.32532 11.9153L10.82 10.5193L10.668 12.618C10.6507 12.8566 10.7633 13.0866 10.962 13.22C11.074 13.2953 11.2033 13.3333 11.3333 13.3333C11.4353 13.3333 11.5373 13.31 11.6313 13.2633L14.298 11.93C14.4673 11.8453 14.5933 11.692 14.6433 11.5086L15.4727 8.46331L19.158 6.62398C19.604 6.40065 19.886 5.95265 19.8953 5.45465C19.904 4.95665 19.638 4.49864 19.2007 4.26064ZM8.72732 4.43398L9.97199 4.14331L12.438 5.60131L10.7067 6.42931L8.72732 4.43398ZM14.6093 7.40465C14.4393 7.48931 14.314 7.64265 14.264 7.82598L13.4347 10.8713L12.082 11.548L12.2387 9.38265C12.256 9.13798 12.1387 8.90331 11.9313 8.77198C11.8227 8.70198 11.6987 8.66665 11.574 8.66665C11.462 8.66665 11.35 8.69465 11.2487 8.75131L7.82599 10.6666H6.41199L5.35332 8.54998L7.34132 9.29131C7.50999 9.35531 7.69866 9.34531 7.86199 9.26865L10.8527 7.83865H10.8533L14.14 6.26731C14.1407 6.26731 14.1407 6.26665 14.1407 6.26665L17.3127 4.74998L18.5613 5.43198L14.6093 7.40465Z" fill="black"/>
<path d="M17.6387 24.4273C17.634 24.4213 17.634 24.4133 17.6293 24.408C17.618 24.394 17.6053 24.382 17.594 24.368C17.4207 24.15 17.2387 23.94 17.044 23.7413C17.034 23.7313 17.0253 23.72 17.016 23.71C16.8153 23.5073 16.6033 23.3153 16.382 23.1346C16.306 23.0726 16.2253 23.018 16.1473 22.9593C16.0067 22.8526 15.8653 22.7466 15.7173 22.6493C15.6067 22.576 15.492 22.51 15.3773 22.4426C15.2533 22.3693 15.1287 22.298 15.0007 22.2313C14.8773 22.1673 14.752 22.1073 14.6253 22.05C14.496 21.9913 14.3647 21.9366 14.2313 21.8846C14.1047 21.8353 13.978 21.7873 13.8493 21.7446C13.7033 21.696 13.554 21.6546 13.404 21.6146C13.2833 21.5826 13.164 21.548 13.0413 21.5213C12.8647 21.4826 12.684 21.4553 12.5027 21.4286C12.402 21.414 12.3027 21.3933 12.2013 21.3826C11.9153 21.3513 11.6267 21.3333 11.3333 21.3333C11.04 21.3333 10.7513 21.3513 10.466 21.3826C10.3647 21.3933 10.2653 21.414 10.1647 21.4286C9.98333 21.4553 9.80334 21.4826 9.626 21.5213C9.50333 21.548 9.384 21.5826 9.26334 21.6146C9.11334 21.6546 8.96467 21.696 8.818 21.7446C8.68867 21.7873 8.562 21.8353 8.436 21.8846C8.30267 21.9366 8.17133 21.9913 8.042 22.05C7.91534 22.1073 7.79 22.1673 7.66667 22.2313C7.53867 22.298 7.414 22.3693 7.29 22.4426C7.176 22.51 7.06134 22.576 6.95 22.6493C6.802 22.7466 6.66067 22.8526 6.52 22.9593C6.442 23.0186 6.36134 23.0726 6.28534 23.1346C6.064 23.3153 5.85267 23.5073 5.65134 23.71C5.64134 23.72 5.63267 23.7313 5.62334 23.7413C5.42867 23.94 5.24667 24.15 5.07334 24.368C5.062 24.382 5.04934 24.394 5.038 24.408C5.03334 24.414 5.03267 24.4213 5.02867 24.4273C3.97 25.7833 3.33334 27.484 3.33334 29.3333C3.33334 31.2366 4.004 32.9846 5.11734 34.3593C5.12134 34.3646 5.122 34.372 5.126 34.3773C5.134 34.3873 5.14334 34.3953 5.15134 34.4053C5.322 34.6133 5.50334 34.8126 5.694 35.002C5.786 35.094 5.88534 35.176 5.98067 35.2626C6.088 35.3593 6.19334 35.4573 6.30534 35.5486C6.42 35.642 6.54 35.7273 6.65934 35.8133C6.762 35.8873 6.864 35.9613 6.97 36.0306C7.09534 36.1126 7.22267 36.1886 7.352 36.2626C7.46267 36.3266 7.57467 36.388 7.68867 36.4466C7.81734 36.5126 7.94667 36.576 8.078 36.6346C8.204 36.6913 8.33267 36.742 8.462 36.792C8.588 36.8406 8.71267 36.8893 8.84134 36.9313C8.98934 36.98 9.14 37.02 9.29134 37.06C9.408 37.0906 9.52267 37.1246 9.64134 37.15C9.82067 37.1886 10.0047 37.216 10.188 37.242C10.2833 37.256 10.3773 37.2753 10.474 37.286C10.7573 37.316 11.0433 37.3333 11.3333 37.3333C11.6233 37.3333 11.9093 37.316 12.192 37.2853C12.288 37.2753 12.382 37.2553 12.478 37.2413C12.662 37.2146 12.8453 37.188 13.0247 37.1493C13.1427 37.124 13.258 37.09 13.3747 37.0593C13.526 37.0193 13.6773 36.9793 13.8247 36.9306C13.9527 36.8886 14.078 36.84 14.204 36.7913C14.3333 36.7413 14.462 36.6906 14.588 36.634C14.72 36.5753 14.8493 36.512 14.9773 36.446C15.0913 36.3873 15.2033 36.326 15.314 36.262C15.4433 36.1873 15.5707 36.1113 15.696 36.03C15.802 35.9606 15.904 35.8866 16.0067 35.8126C16.126 35.726 16.2453 35.6413 16.3607 35.548C16.4727 35.4573 16.578 35.3586 16.6853 35.262C16.7813 35.1753 16.88 35.0933 16.972 35.0013C17.1627 34.8113 17.344 34.6126 17.5147 34.4046C17.5227 34.3946 17.532 34.3866 17.54 34.3766C17.544 34.3713 17.5447 34.364 17.5487 34.3586C18.6627 32.9846 19.3333 31.2366 19.3333 29.3333C19.3333 27.484 18.6967 25.7833 17.6387 24.4273ZM7.11734 24.1753C7.18534 24.1186 7.25867 24.0693 7.32934 24.016C7.42667 23.942 7.52267 23.866 7.62334 23.798C7.75467 23.71 7.89134 23.63 8.02867 23.5513C8.05867 23.534 8.08734 23.5146 8.11733 23.4986C7.86 23.9146 7.62934 24.378 7.434 24.8873C7.156 24.802 6.888 24.71 6.64 24.6073C6.79267 24.4546 6.952 24.3113 7.11734 24.1753ZM5.76667 25.6753C6.15534 25.8593 6.58267 26.0206 7.03667 26.1613C6.83934 26.966 6.71934 27.844 6.68334 28.7673H4.69534C4.79134 27.632 5.17134 26.5773 5.76667 25.6753ZM5.85734 33.1253C5.24667 32.246 4.84267 31.2153 4.71467 30.1H6.68867C6.73734 31.0206 6.876 31.888 7.086 32.6853C6.65534 32.8126 6.24334 32.9586 5.85734 33.1253ZM8.04267 35.124C7.91134 35.0486 7.782 34.972 7.65667 34.8893C7.60333 34.854 7.55133 34.8153 7.49933 34.778C7.38 34.694 7.26267 34.6073 7.14934 34.516C7.09267 34.47 7.03733 34.4206 6.982 34.3726C6.91267 34.3126 6.84534 34.25 6.778 34.1873C7.00867 34.1006 7.258 34.0293 7.506 33.9566C7.68467 34.396 7.88934 34.7993 8.11534 35.1653C8.09067 35.152 8.06667 35.1373 8.04267 35.124ZM10.6667 35.8593C9.94 35.5506 9.294 34.7486 8.81867 33.6473C9.40867 33.5446 10.03 33.4873 10.6667 33.46V35.8593ZM10.6667 32.1166C9.878 32.148 9.112 32.2353 8.38267 32.3733C8.198 31.674 8.074 30.9073 8.02534 30.1H10.6667V32.1166ZM10.6667 28.7666H8.01467C8.05067 27.9586 8.16333 27.1886 8.336 26.482C9.074 26.626 9.85667 26.7173 10.6667 26.7493V28.7666ZM10.6667 25.4186C10.0013 25.3893 9.35333 25.316 8.74067 25.204C9.222 24.0073 9.9 23.1333 10.6667 22.8073V25.4186ZM16.9007 25.6746C17.496 26.5773 17.8753 27.6313 17.972 28.7666H15.984C15.948 27.8433 15.828 26.9653 15.6307 26.1606C16.0847 26.0206 16.5113 25.8593 16.9007 25.6746ZM14.6387 23.5513C14.7753 23.63 14.9127 23.71 15.0433 23.798C15.144 23.866 15.24 23.942 15.3373 24.016C15.408 24.0693 15.4813 24.1193 15.55 24.1753C15.7147 24.3113 15.8747 24.4546 16.0273 24.6073C15.78 24.7106 15.5113 24.802 15.2333 24.8873C15.038 24.378 14.8073 23.9146 14.55 23.4986C14.58 23.5153 14.6087 23.5346 14.6387 23.5513ZM12 22.8073C12.7667 23.1333 13.4447 24.0073 13.926 25.204C13.3133 25.3153 12.6653 25.3893 12 25.4186V22.8073ZM12 26.7493C12.81 26.7173 13.5927 26.626 14.33 26.482C14.5027 27.1886 14.616 27.9586 14.6513 28.7666H12V26.7493ZM12 35.8593V33.46C12.6367 33.4873 13.258 33.5446 13.848 33.6473C13.3727 34.7486 12.726 35.5506 12 35.8593ZM12 32.1166V30.1H14.6413C14.5927 30.9066 14.4687 31.674 14.284 32.3733C13.5547 32.2353 12.7887 32.148 12 32.1166ZM15.6847 34.3726C15.6293 34.4206 15.5747 34.47 15.5173 34.516C15.404 34.608 15.2867 34.694 15.1673 34.778C15.1147 34.8153 15.0633 34.8533 15.01 34.8893C14.8847 34.9726 14.7553 35.0493 14.6247 35.124C14.6007 35.138 14.576 35.152 14.552 35.1653C14.778 34.7993 14.9827 34.3953 15.1613 33.9566C15.4093 34.0293 15.658 34.1006 15.8893 34.1873C15.822 34.25 15.7547 34.3126 15.6847 34.3726ZM16.81 33.1253C16.4233 32.9586 16.012 32.8133 15.5813 32.6853C15.7913 31.888 15.93 31.0206 15.9787 30.1H17.9527C17.824 31.2153 17.42 32.246 16.81 33.1253Z" fill="black"/>
<path d="M39.3333 1.3333H22.6667V0.666636C22.6667 0.29797 22.368 -3.05176e-05 22 -3.05176e-05H0.666667C0.298667 -3.05176e-05 0 0.29797 0 0.666636V39.3333C0 39.702 0.298667 40 0.666667 40H22C22.368 40 22.6667 39.702 22.6667 39.3333V38.6666H39.3333C39.7013 38.6666 40 38.3686 40 38V1.99997C40 1.6313 39.7013 1.3333 39.3333 1.3333ZM21.3333 38.6666H1.33333V1.3333H21.3333V38.6666ZM38.6667 37.3333H22.6667V2.66664H38.6667V37.3333Z" fill="black"/>
<path d="M16.6667 14.6666H4.66666C4.29933 14.6666 4 14.368 4 14V13.3333H2.66666V14C2.66666 15.1026 3.564 16 4.66666 16H16.6667C17.034 16 17.3333 16.2986 17.3333 16.6666C17.3333 17.0346 17.034 17.3333 16.6667 17.3333H12.6667C11.564 17.3333 10.6667 18.2306 10.6667 19.3333V20H12V19.3333C12 18.9653 12.2993 18.6666 12.6667 18.6666H16.6667C17.7693 18.6666 18.6667 17.7693 18.6667 16.6666C18.6667 15.564 17.7693 14.6666 16.6667 14.6666Z" fill="black"/>
<path d="M4 10.6666H2.66666V12H4V10.6666Z" fill="black"/>
<path d="M30 6.66664C28.8973 6.66664 28 7.56397 28 8.66664C28 9.76931 28.8973 10.6666 30 10.6666C31.1027 10.6666 32 9.76931 32 8.66664C32 7.56397 31.1027 6.66664 30 6.66664ZM30 9.33331C29.6327 9.33331 29.3333 9.03464 29.3333 8.66664C29.3333 8.29864 29.6327 7.99997 30 7.99997C30.3673 7.99997 30.6667 8.29864 30.6667 8.66664C30.6667 9.03464 30.3673 9.33331 30 9.33331Z" fill="black"/>
<path d="M36.6667 3.99997H24.6667C24.2987 3.99997 24 4.29797 24 4.66664V18.6666C24 19.0353 24.2987 19.3333 24.6667 19.3333H36.6667C37.0347 19.3333 37.3333 19.0353 37.3333 18.6666V4.66664C37.3333 4.29797 37.0347 3.99997 36.6667 3.99997ZM36 18H25.3333V16.6666H30H36V18ZM25.9127 15.3333L27.3333 13.202L28.754 15.3333H25.9127ZM31.2027 15.3333L33.3333 11.9246L35.464 15.3333H31.2027ZM36 13.6753L33.8987 10.3133C33.6547 9.92397 33.012 9.92397 32.768 10.3133L29.982 14.7713L27.888 11.6306C27.6407 11.2593 27.026 11.2593 26.7787 11.6306L25.3333 13.798V5.3333H36V13.6753Z" fill="black"/>
<path d="M36.6667 24.6666H24.6667V26H36.6667V24.6666Z" fill="black"/>
<path d="M36.7467 28H24.7467V29.3333H36.7467V28Z" fill="black"/>
<path d="M36.6667 31.3333H24.6667V32.6666H36.6667V31.3333Z" fill="black"/>
<path d="M28.6667 34.6666H27.3333V36H28.6667V34.6666Z" fill="black"/>
<path d="M31.3333 34.6666H30V36H31.3333V34.6666Z" fill="black"/>
<path d="M34 34.6666H32.6667V36H34V34.6666Z" fill="black"/>
<path d="M34.6667 21.3333H26.6667V22.6666H34.6667V21.3333Z" fill="black"/>
</g>
<defs>
<clipPath id="clip0">
<rect y="-3.05176e-05" width="40" height="40" fill="white"/>
</clipPath>
</defs>
</svg>
