<svg width="40" height="40" viewBox="0 0 40 40" fill="none" xmlns="http://www.w3.org/2000/svg">
<path d="M38.0786 32.1075L34.2546 21.982C34.0214 21.3646 33.6502 20.8171 33.1576 20.3564V18.3219C33.1576 16.733 31.8649 15.4403 30.2761 15.4403H27.518C27.5623 15.3753 27.6063 15.3101 27.6491 15.2439C28.5869 13.79 29.0825 12.1032 29.0825 10.3658C29.0825 9.61863 28.9905 8.88027 28.8098 8.16246C29.7344 7.60777 30.3475 6.83308 30.5555 5.88886C30.6175 5.60714 30.5207 5.31394 30.303 5.12464C30.0852 4.93527 29.7816 4.87995 29.5112 4.9805C29.1579 5.11175 28.8252 5.17839 28.5223 5.17839C27.8624 5.17839 27.2984 4.87355 26.6936 4.18995C25.0521 2.33472 22.8237 1.3541 20.2495 1.3541H20.2207C16.107 1.36574 13.4495 3.19777 11.6056 7.29269C11.2381 8.00152 11.0591 9.00691 11.0591 10.3659C11.0591 12.2189 11.6237 13.9758 12.621 15.4403H10.5288C8.94 15.4403 7.64734 16.733 7.64734 18.322V20.0104C6.91094 20.6317 6.22414 21.4746 5.59062 22.5391C4.25953 24.7755 3.33445 27.6571 2.59109 29.9726C2.33883 30.7585 2.09867 31.506 1.87281 32.1325C0.761797 32.7057 0 33.8643 0 35.1979C0 37.0991 1.54672 38.6458 3.44789 38.6458H15.9323C16.8842 38.6458 17.7473 38.2579 18.3718 37.632H21.6282C22.2527 38.2578 23.1157 38.6458 24.0677 38.6458H36.5521C38.4534 38.6458 40 37.0991 40 35.1979C40 33.8446 39.216 32.6718 38.0786 32.1075ZM32.7798 22.5391L36.2584 31.75H33.6127C33.6047 31.7178 33.5953 31.6857 33.583 31.6539L32.601 29.1261C32.4434 28.7204 31.9866 28.5193 31.5809 28.6768C31.1751 28.8345 30.9739 29.2913 31.1316 29.697L31.9291 31.75H29.1156V20.3581C30.6483 20.505 32.2484 21.1318 32.7798 22.5391ZM30.2761 17.0169C30.9956 17.0169 31.5811 17.6024 31.5811 18.3221V19.3514C30.4134 18.8545 29.2098 18.7462 28.3849 18.7462H24.3837V18.2799C25.0236 17.9307 25.616 17.5061 26.1508 17.0169H30.2761ZM27.539 20.3227V31.7501H25.0294V20.3227H27.539ZM20.2251 2.93066L20.2494 2.93058C22.3591 2.93058 24.1792 3.7273 25.5129 5.23456C26.3097 6.13511 27.1679 6.62831 28.1259 6.73347C27.3534 7.24956 26.1454 7.54964 24.6838 7.54964C22.8298 7.54964 20.7066 7.06292 18.7053 6.17917C17.9343 5.83871 17.1051 5.66605 16.2407 5.66605C15.4606 5.66605 14.7345 5.80691 14.1091 5.99496C15.5659 3.85128 17.4493 2.93847 20.2251 2.93066ZM12.9184 8.21222C13.3959 7.95027 14.7218 7.24253 16.2405 7.24253C16.8841 7.24253 17.4991 7.36988 18.0682 7.62128C20.2976 8.60574 22.5852 9.12605 24.6836 9.12605C25.6652 9.12605 26.5578 9.00761 27.3362 8.78581C27.4481 9.30269 27.5059 9.83136 27.5059 10.366C27.5059 13.2216 25.8381 15.8591 23.257 17.0854C22.9822 17.216 22.8071 17.4931 22.8071 17.7974V19.1935L20.2022 21.6427L17.6399 19.3496V17.9353C17.6399 17.6193 17.4513 17.3339 17.1605 17.21C16.3013 16.8442 15.5371 16.3303 14.8925 15.7053C14.8731 15.6837 14.8527 15.663 14.831 15.6435C13.451 14.2739 12.6354 12.3893 12.6354 10.366C12.6355 9.43089 12.733 8.69433 12.9184 8.21222ZM9.22359 18.3221C9.22359 17.6024 9.80898 17.0169 10.5286 17.0169H13.9858C14.5998 17.5783 15.2966 18.0594 16.0636 18.4398V18.7462H11.5497C10.7358 18.658 9.95977 18.7605 9.22367 19.0504V18.3221H9.22359ZM15.2825 20.3227V31.7501H12.9691V20.3227H15.2825ZM4.09188 30.4546C4.81086 28.215 5.70563 25.4279 6.945 23.3454C8.26898 21.1208 9.72406 20.1293 11.3926 20.3154V31.7501H8.61656L9.4007 29.7314C9.55836 29.3257 9.35719 28.8689 8.95141 28.7113C8.54555 28.5533 8.08883 28.7548 7.93125 29.1606L6.96266 31.6541C6.95039 31.6858 6.94102 31.718 6.93297 31.7502H3.67133C3.80813 31.3383 3.94805 30.9028 4.09188 30.4546ZM17.4231 36.3275C17.4061 36.3471 17.39 36.3675 17.3751 36.3886C17.0316 36.8042 16.5123 37.0695 15.9323 37.0695H3.44797V37.0694C2.41609 37.0694 1.57664 36.23 1.57664 35.1981C1.57664 34.4032 2.075 33.7229 2.77555 33.4522C2.78312 33.4494 2.79055 33.4464 2.79797 33.4434C3.00055 33.3681 3.21953 33.3268 3.44805 33.3268H15.9324C16.9643 33.3268 17.8037 34.1664 17.8037 35.1982C17.8036 35.6221 17.6617 36.0134 17.4231 36.3275ZM20.6198 35.1979C20.6198 35.4939 20.6574 35.7811 20.7278 36.0555H19.2721C19.3426 35.7813 19.3801 35.4939 19.3801 35.1979C19.3801 33.6178 18.3113 32.2835 16.859 31.8776V20.7663L19.6896 23.2997C19.8395 23.4337 20.0275 23.5006 20.2152 23.5006C20.4095 23.5006 20.6037 23.4291 20.7553 23.2866L23.4528 20.7503V31.8062C21.8442 32.097 20.6198 33.5068 20.6198 35.1979ZM36.5521 37.0694H24.0677C23.4877 37.0694 22.9685 36.8042 22.625 36.3885C22.6099 36.3673 22.5938 36.347 22.577 36.3275C22.3384 36.0133 22.1965 35.6221 22.1965 35.198C22.1965 34.166 23.036 33.3267 24.0678 33.3267H36.5522C36.6868 33.3267 36.8181 33.3414 36.9448 33.3684C37.092 33.5154 37.2928 33.5997 37.5019 33.5997C37.5089 33.5997 37.516 33.5989 37.523 33.5988C38.0624 33.9275 38.4234 34.5214 38.4234 35.198C38.4234 36.2299 37.584 37.0694 36.5521 37.0694Z" fill="black"/>
<path d="M9.73663 26.4672C9.33648 26.2954 8.87312 26.4806 8.7014 26.8807L8.68413 26.9209C8.51249 27.3211 8.69773 27.7845 9.09773 27.9561C9.19913 27.9997 9.30445 28.0203 9.40812 28.0203C9.71382 28.0203 10.0047 27.8413 10.1329 27.5426L10.1501 27.5024C10.3219 27.1023 10.1367 26.6388 9.73663 26.4672Z" fill="black"/>
<path d="M31.8613 26.9209L31.8441 26.8807C31.6724 26.4805 31.2091 26.2952 30.8089 26.4672C30.4088 26.6389 30.2237 27.1023 30.3954 27.5024L30.4127 27.5426C30.5409 27.8414 30.8317 28.0203 31.1374 28.0203C31.2411 28.0203 31.3466 27.9996 31.4478 27.9561C31.8478 27.7845 32.033 27.321 31.8613 26.9209Z" fill="black"/>
</svg>
