<svg width="69" height="69" viewBox="0 0 69 69" fill="none" xmlns="http://www.w3.org/2000/svg">
<g clip-path="url(#clip0)">
<path d="M52.5308 42.0507C52.5308 42.0507 52.5308 24.3969 52.5308 24.2769C52.5308 22.3228 51.1736 20.6793 49.3522 20.2397L49.3927 19.6822C51.1899 16.2604 51.789 12.229 51.1257 7.97703C50.852 6.22034 50.4113 4.75634 50.0897 3.83719C49.5064 2.16946 49.2511 1.91045 49.1674 1.8257C48.8884 1.54301 48.4983 1.39771 48.1029 1.42824C47.7071 1.4593 47.3449 1.66356 47.1133 1.98573C45.4908 4.2457 44.6153 4.25991 44.3274 4.26465C44.32 4.26465 44.3121 4.26518 44.3042 4.26518C43.5241 4.26518 42.498 3.63188 41.3125 2.90014C40.5134 2.40688 39.6074 1.84834 38.5598 1.33823C32.7544 -1.48555 27.1094 0.244303 23.9767 5.72813C23.8061 5.73128 23.6224 5.73392 23.4471 5.73602C20.9002 5.35804 19.0361 5.9408 17.9064 7.4685C16.5382 9.31943 16.4945 12.4327 17.7769 16.7216C18.2007 18.1371 18.6955 19.4416 19.1046 20.4324C17.5905 21.0525 16.5214 22.5423 16.5214 24.2769V42.0507C15.4032 42.9715 14.6894 44.3655 14.6894 45.9232V67.6526C14.6894 68.397 15.2927 69.0003 16.037 69.0003H53.0151C53.7594 69.0003 54.3627 68.397 54.3627 67.6526C54.3627 66.9082 53.7594 66.305 53.0151 66.305H49.0911V52.7304H51.6674V55.5647C51.6674 56.3091 52.2707 56.9124 53.0151 56.9124C53.7594 56.9124 54.3627 56.3091 54.3627 55.5647V45.9232C54.3627 44.3655 53.6489 42.9715 52.5308 42.0507ZM49.3474 40.9084H39.6111L38.9936 40.3804L38.991 39.5939C41.0256 39.0864 42.7676 38.3141 44.2026 37.2844H49.8354V40.9321C49.6749 40.9163 49.5122 40.9084 49.3474 40.9084ZM46.3957 53.9107H45.2071C44.269 53.9107 43.5062 53.1479 43.5062 52.2098V43.6032H46.3957V53.9107ZM49.8354 34.5891H46.8711C48.0524 32.8935 48.7841 30.8441 49.0911 28.3683C49.348 28.3236 49.597 28.2551 49.8354 28.1656V34.5891ZM49.836 24.2769C49.836 25.0807 49.1816 25.7346 48.3777 25.7346H47.8597C47.1506 25.7346 46.5626 26.2842 46.5152 26.9917C46.1199 32.8972 43.3035 36.0421 37.3827 37.1897C36.7473 37.3129 36.2893 37.8704 36.2914 38.5179L36.3009 41.0079C36.3025 41.4001 36.4746 41.7717 36.7726 42.0265L37.1553 42.354L34.5258 45.104L31.8968 42.354L32.28 42.026C32.578 41.7712 32.7501 41.3996 32.7517 41.0074L32.7607 38.5173C32.7633 37.8704 32.3048 37.3129 31.6694 37.1897C25.7486 36.0421 22.9317 32.8967 22.5369 26.9917C22.4895 26.2842 21.9015 25.734 21.1924 25.734H20.6744C19.8705 25.734 19.2162 25.0802 19.2162 24.2769C19.2162 23.5599 19.7363 22.9624 20.4185 22.8413C20.6323 22.9766 20.8823 23.0514 21.1403 23.0514C21.2408 23.0514 21.3429 23.0398 21.4445 23.0166C22.0557 22.875 22.4884 22.3307 22.4884 21.7037V20.6445H46.6205L46.5674 21.3736C46.5405 21.7469 46.6695 22.1148 46.9248 22.3891C47.1796 22.6629 47.537 22.8187 47.9113 22.8187H48.3777C49.1816 22.8192 49.836 23.473 49.836 24.2769ZM19.2162 28.1656C19.4552 28.2551 19.7042 28.3236 19.9611 28.3683C20.2685 30.8446 20.9997 32.8935 22.181 34.5897H19.2162V28.1656ZM22.5016 17.9497C22.6158 17.0211 23.4508 16.0909 24.123 15.5024C26.4819 16.9416 29.0299 17.6523 31.6073 17.6523C35.038 17.6518 38.5203 16.3925 41.6747 13.9157C42.2627 15.4523 43.1861 16.829 44.3727 17.9497H22.5016ZM20.0737 9.07043C20.5749 8.39291 21.6072 8.17234 23.1407 8.41555C23.2154 8.42713 23.2907 8.43345 23.365 8.43187C23.365 8.43187 23.7303 8.42818 24.0967 8.42134C25.02 8.40344 25.6297 8.39133 26.0034 7.64854C28.3892 2.90962 32.6428 1.45667 37.3811 3.76191C38.3077 4.21253 39.1157 4.71106 39.8975 5.19327C42.2991 6.6757 44.7712 8.20129 47.7581 5.36752C48.0287 6.2335 48.3125 7.34321 48.4967 8.61349C48.9421 11.6915 48.6531 14.5242 47.6386 17.0627C45.5613 15.8145 44.13 13.7104 43.7446 11.2767C43.6667 10.7819 43.3203 10.3718 42.846 10.2112C42.7044 10.1628 42.5586 10.1396 42.4138 10.1396C42.0737 10.1396 41.7395 10.2686 41.4847 10.5107C41.3773 10.6134 41.2673 10.7166 41.1541 10.8208C36.0072 15.5671 29.9053 16.2873 24.8311 12.747C24.3825 12.4338 23.7893 12.4233 23.3292 12.7202C23.0633 12.8918 21.2792 14.091 20.3511 15.933C19.5178 13.0887 19.163 10.3023 20.0737 9.07043ZM19.2162 37.2844H24.85C26.2845 38.3141 28.0265 39.0864 30.0617 39.5939L30.0585 40.3799L29.441 40.9084H19.7047C19.5399 40.9084 19.3767 40.9163 19.2162 40.9321V37.2844ZM17.3847 45.9232C17.3847 44.6439 18.4255 43.6032 19.7047 43.6032H19.9611V50.0356H17.3847V45.9232ZM22.6564 43.6032H25.5459V52.2098C25.5459 53.1479 24.7832 53.9107 23.8451 53.9107H22.6564V43.6032ZM17.3847 52.7304H19.9611V66.305H17.3847V52.7304ZM22.6564 56.606H23.8451C26.2693 56.606 28.2413 54.634 28.2413 52.2098V43.6032H29.3626L33.5519 47.9857C33.8062 48.2516 34.1578 48.4021 34.5263 48.4021C34.8943 48.4021 35.2459 48.2516 35.5002 47.9857L39.6895 43.6032H40.8108V52.2098C40.8108 54.634 42.7828 56.606 45.2071 56.606H46.3957V66.305H22.6558V56.606H22.6564ZM49.0911 50.0356V43.6032H49.3474C50.6267 43.6032 51.6674 44.6439 51.6674 45.9232V50.0356H49.0911Z" fill="black"/>
<path d="M53.0156 62.8873C52.9282 62.8873 52.8392 62.8779 52.7518 62.8605C52.665 62.8442 52.5802 62.8173 52.4997 62.7836C52.4186 62.7499 52.3407 62.7083 52.2665 62.6599C52.1938 62.6115 52.1249 62.5546 52.0617 62.4925C51.9996 62.4309 51.9443 62.362 51.8948 62.2877C51.8464 62.2151 51.8043 62.1372 51.7706 62.0545C51.7369 61.974 51.7116 61.8892 51.6937 61.8029C51.6764 61.7166 51.6685 61.6276 51.6685 61.5402C51.6685 61.4523 51.6764 61.3633 51.6937 61.277C51.7116 61.1912 51.7369 61.1059 51.7706 61.0238C51.8043 60.9432 51.8464 60.8648 51.8948 60.7921C51.9443 60.7179 51.9996 60.6495 52.0617 60.5874C52.1249 60.5252 52.1938 60.4689 52.2665 60.42C52.3407 60.3715 52.4191 60.3299 52.4997 60.2962C52.5802 60.2626 52.665 60.2357 52.7518 60.2194C52.9256 60.1841 53.1046 60.1841 53.2783 60.2194C53.3646 60.2357 53.4499 60.2626 53.5304 60.2962C53.6115 60.3299 53.6894 60.3715 53.7636 60.42C53.8363 60.4689 53.9063 60.5252 53.9684 60.5874C54.0305 60.6495 54.0869 60.7179 54.1353 60.7921C54.1837 60.8648 54.2258 60.9432 54.2595 61.0238C54.2932 61.1059 54.3185 61.1912 54.3364 61.277C54.3538 61.3633 54.3617 61.4523 54.3617 61.5402C54.3617 61.6276 54.3538 61.7166 54.3364 61.8029C54.3185 61.8892 54.2932 61.974 54.2595 62.0545C54.2258 62.1372 54.1837 62.2151 54.1353 62.2877C54.0869 62.362 54.0305 62.4309 53.9684 62.4925C53.9063 62.5546 53.8363 62.6115 53.7636 62.6599C53.6894 62.7083 53.611 62.7499 53.5304 62.7836C53.4494 62.8173 53.3646 62.8442 53.2783 62.8605C53.1919 62.8779 53.103 62.8873 53.0156 62.8873Z" fill="black"/>
<path d="M30.6602 25.1154H27.8071C27.1408 25.1154 26.6008 24.4567 26.6008 23.6439C26.6008 22.8311 27.1408 22.1723 27.8071 22.1723H27.9612C27.9781 22.1154 27.9984 22.0585 28.0215 22.0033C28.324 21.279 29.0501 20.9916 29.6438 21.3601L31.2083 22.3327C31.7049 22.6419 31.9636 23.326 31.8336 23.987C31.703 24.6487 31.2182 25.1154 30.6602 25.1154Z" fill="black"/>
<path d="M42.5432 25.1154H39.6896C39.1322 25.1154 38.6473 24.6487 38.5168 23.987C38.3867 23.326 38.6449 22.6414 39.1421 22.3327L40.7065 21.3601C41.3002 20.9916 42.0263 21.279 42.3288 22.0033C42.3519 22.0585 42.3722 22.1148 42.3887 22.1723H42.5432C43.209 22.1723 43.7495 22.8311 43.7495 23.6439C43.7495 24.4567 43.209 25.1154 42.5432 25.1154Z" fill="black"/>
<path d="M35.2428 34.5675C34.3433 34.5675 33.4437 34.1321 32.7592 33.2619C32.2897 32.6647 32.2897 31.6972 32.7587 31.0999C33.2278 30.5027 33.9888 30.5021 34.4583 31.0993C34.8912 31.6488 35.5945 31.6488 36.0269 31.0993C36.4963 30.5021 37.2574 30.5027 37.7264 31.0999C38.1959 31.6972 38.1954 32.6647 37.7259 33.2619C37.0414 34.1321 36.1419 34.5675 35.2428 34.5675Z" fill="black"/>
</g>
<defs>
<clipPath id="clip0">
<rect width="69" height="69" fill="white"/>
</clipPath>
</defs>
</svg>
