<svg width="69" height="69" viewBox="0 0 69 69" fill="none" xmlns="http://www.w3.org/2000/svg">
<g clip-path="url(#clip0)">
<path d="M69.0001 46.2822C69.0001 43.8344 68.2461 41.5597 66.9611 39.6754C66.8936 39.5079 66.7815 39.3697 66.6458 39.2544C64.4998 36.3907 61.0897 34.5261 57.244 34.5261H55.759L45.8814 25.2497C43.8436 23.3374 41.1824 22.2841 38.3881 22.2841H5.72937C2.57017 22.2841 7.62939e-06 24.8543 7.62939e-06 28.0141V45.0596C7.62939e-06 45.2207 0.012107 45.3786 0.0242064 45.5359C0.0197487 45.5767 7.62939e-06 45.613 7.62939e-06 45.655C7.62939e-06 45.8136 0.0350321 45.9626 0.0948921 46.0995C0.590966 49.0014 3.11846 51.2194 6.15986 51.2194H6.19233C7.03037 54.4162 9.93549 56.7839 13.3908 56.7839C16.8468 56.7839 19.7513 54.4162 20.5899 51.2194H50.5511C51.3898 54.4162 54.2949 56.7839 57.7503 56.7839C61.2393 56.7839 64.168 54.3697 64.9729 51.1264C67.3113 50.6896 69.0001 48.6766 69.0001 46.2822ZM13.3908 54.5582C10.5099 54.5582 8.16708 52.2154 8.16708 49.3338C8.16708 46.4529 10.5105 44.1101 13.3908 44.1101C16.2711 44.1101 18.6152 46.4529 18.6152 49.3338C18.6152 52.2154 16.2711 54.5582 13.3908 54.5582ZM57.7496 54.5582C54.8687 54.5582 52.5259 52.2154 52.5259 49.3338C52.5259 46.4529 54.8693 44.1101 57.7496 44.1101C60.6299 44.1101 62.974 46.4529 62.974 49.3338C62.974 52.2154 60.6305 54.5582 57.7496 54.5582ZM65.1704 48.7492C64.8698 44.9144 61.6603 41.8838 57.7496 41.8838C53.7568 41.8838 50.497 45.0437 50.3174 48.9938H20.8236C20.6441 45.0443 17.3842 41.8838 13.3908 41.8838C9.40503 41.8838 6.14967 45.0328 5.95926 48.9734C4.49205 48.8983 3.24264 48.022 2.63257 46.7681H3.60944C4.22396 46.7681 4.72194 46.2701 4.72194 45.655C4.72194 45.0398 4.22396 44.5425 3.60944 44.5425H2.22565V28.0141C2.22565 26.0814 3.7973 24.5098 5.72937 24.5098H38.3881C40.6144 24.5098 42.7343 25.3491 44.3575 26.873L54.556 36.4499C54.7624 36.6441 55.0349 36.7518 55.3183 36.7518H57.244C59.5747 36.7518 61.7106 37.5962 63.3688 38.9908C62.7868 39.0277 62.3225 39.499 62.3225 40.0906C62.3225 40.7057 62.8212 41.2037 63.4357 41.2037H65.2939C66.2262 42.676 66.7745 44.4145 66.7745 46.2822C66.7745 47.3788 66.1268 48.3232 65.1704 48.7492Z" fill="black"/>
<path d="M47.8549 41.2037H22.2584C21.6432 41.2037 21.1452 41.7011 21.1452 42.3162C21.1452 42.9314 21.6432 43.4294 22.2584 43.4294H47.8549C48.4694 43.4294 48.968 42.9314 48.968 42.3162C48.968 41.7011 48.4694 41.2037 47.8549 41.2037Z" fill="black"/>
<path d="M31.1616 36.7518V26.7583C31.1616 26.1432 30.663 25.6458 30.0484 25.6458H5.56444C4.94992 25.6458 4.45193 26.1432 4.45193 26.7583V36.7518C4.45193 37.3669 4.94992 37.8649 5.56444 37.8649H30.0484C30.663 37.8649 31.1616 37.3669 31.1616 36.7518ZM28.9353 35.6393H6.67758V27.8715H28.9353V35.6393Z" fill="black"/>
<path d="M43.1278 27.7778C41.6606 26.403 39.7438 25.6458 37.7322 25.6458H34.4997C33.8852 25.6458 33.3872 26.1432 33.3872 26.7583V36.7518C33.3872 37.3669 33.8852 37.8649 34.4997 37.8649H51.0841C51.5413 37.8649 51.9515 37.5853 52.1196 37.1606C52.2877 36.7358 52.1782 36.2519 51.8451 35.9398L43.1278 27.7778ZM35.6129 35.6393V27.8715H37.7322C39.1764 27.8715 40.5526 28.4147 41.6059 29.4017L48.2669 35.6393H35.6129Z" fill="black"/>
<path d="M13.3908 45.5327C11.2944 45.5327 9.58907 47.2375 9.58907 49.3338C9.58907 51.4308 11.2944 53.1356 13.3908 53.1356C15.4872 53.1356 17.1926 51.4308 17.1926 49.3338C17.1926 47.2375 15.4872 45.5327 13.3908 45.5327ZM13.3908 50.9099C12.5216 50.9099 11.8147 50.2037 11.8147 49.3338C11.8147 48.4646 12.5216 47.7584 13.3908 47.7584C14.2594 47.7584 14.9669 48.4646 14.9669 49.3338C14.9669 50.2037 14.2594 50.9099 13.3908 50.9099Z" fill="black"/>
<path d="M57.7496 45.5327C55.6532 45.5327 53.9478 47.2375 53.9478 49.3338C53.9478 51.4308 55.6532 53.1356 57.7496 53.1356C59.8459 53.1356 61.5513 51.4308 61.5513 49.3338C61.5513 47.2375 59.8466 45.5327 57.7496 45.5327ZM57.7496 50.9099C56.881 50.9099 56.1735 50.2037 56.1735 49.3338C56.1735 48.4646 56.881 47.7584 57.7496 47.7584C58.6188 47.7584 59.3257 48.4646 59.3257 49.3338C59.3257 50.2037 58.6188 50.9099 57.7496 50.9099Z" fill="black"/>
<path d="M21.1452 14.494H31.1615C31.7761 14.494 32.2741 13.996 32.2741 13.3808C32.2741 12.7657 31.7761 12.2677 31.1615 12.2677H21.1452C20.5307 12.2677 20.0321 12.7657 20.0321 13.3808C20.0321 13.996 20.5307 14.494 21.1452 14.494Z" fill="black"/>
<path d="M12.242 17.8329H27.8228C28.4373 17.8329 28.9353 17.3349 28.9353 16.7197C28.9353 16.1046 28.4373 15.6066 27.8228 15.6066H12.242C11.6275 15.6066 11.1289 16.1046 11.1289 16.7197C11.1289 17.3349 11.6275 17.8329 12.242 17.8329Z" fill="black"/>
</g>
<defs>
<clipPath id="clip0">
<rect width="69" height="69" fill="white"/>
</clipPath>
</defs>
</svg>
