<svg width="69" height="69" viewBox="0 0 69 69" fill="none" xmlns="http://www.w3.org/2000/svg">
<g clip-path="url(#clip0)">
<path d="M67.6976 10.4867L68.606 9.57822C69.1322 9.05196 69.1322 8.19864 68.606 7.67225C68.0797 7.14613 67.2264 7.14613 66.7 7.67225L65.7916 8.5807L64.8837 7.67279C64.631 7.42011 64.2882 7.27807 63.9308 7.27807H62.4485L55.5652 0.394724C55.3123 0.142041 54.9696 0 54.6122 0H4.8544C2.17825 0 0.00100708 2.17711 0.00100708 4.85339V30.1083C0.00100708 32.7845 2.17825 34.9617 4.8544 34.9617H16.595L8.69989 42.857C7.78323 43.7737 7.2784 44.9925 7.2784 46.2889C7.2784 47.5852 7.78323 48.804 8.69989 49.7208L26.5577 67.5786C27.4744 68.4953 28.6932 69.0001 29.9896 69.0001C31.2861 69.0001 32.5049 68.4953 33.4215 67.5786L46.7965 54.2038C47.3228 53.6776 47.3228 52.8243 46.7965 52.2979C46.2702 51.7719 45.4169 51.7718 44.8906 52.2979L31.5156 65.6727C31.108 66.0803 30.566 66.3047 29.9896 66.3047C29.4133 66.3047 28.8712 66.0803 28.4637 65.6727L10.6057 47.8148C10.1982 47.4073 9.97368 46.8653 9.97368 46.2889C9.97368 45.7124 10.1982 45.1705 10.6057 44.763L45.3951 9.97362H63.3727L63.8859 10.4868L60.7696 13.6031C60.2417 13.35 59.6511 13.2081 59.0276 13.2081C56.7984 13.2081 54.9847 15.0217 54.9847 17.251C54.9847 19.4803 56.7984 21.2939 59.0276 21.2939C61.2569 21.2939 63.0706 19.4803 63.0706 17.251C63.0706 16.6276 62.9285 16.0368 62.6754 15.509L65.7917 12.3928L66.3049 12.9059V30.8835L53.4667 43.7218C52.9405 44.248 52.9405 45.1013 53.4667 45.6277C53.993 46.1539 54.8463 46.1539 55.3727 45.6277L68.6056 32.3948C68.8583 32.142 69.0003 31.7993 69.0003 31.4419V12.3475C69.0003 11.9901 68.8583 11.6474 68.6056 11.3946L67.6976 10.4867ZM24.2018 24.1814C23.4584 24.1814 22.8537 23.5767 22.8537 22.8333C22.8537 22.0898 23.4584 21.4852 24.2018 21.4852C24.9452 21.4852 25.5498 22.0898 25.5498 22.8333C25.5498 23.5766 24.9452 24.1814 24.2018 24.1814ZM44.8369 7.2782C44.4795 7.2782 44.1366 7.42024 43.8839 7.67292L28.2117 23.345C28.233 23.1773 28.2453 23.0066 28.2453 22.8332C28.2453 20.6037 26.4315 18.7897 24.2019 18.7897C21.9725 18.7897 20.1586 20.6037 20.1586 22.8332C20.1586 25.0627 21.9724 26.8765 24.2019 26.8765C24.3754 26.8765 24.546 26.8643 24.7138 26.843L19.2905 32.2663H4.8544C3.66443 32.2663 2.69629 31.2981 2.69629 30.1082V4.85339C2.69629 3.66343 3.66443 2.69528 4.8544 2.69528H54.0539L58.6368 7.2782H44.8369ZM59.0276 18.5984C58.2846 18.5984 57.68 17.9938 57.68 17.2507C57.68 16.5077 58.2846 15.9031 59.0276 15.9031C59.3352 15.9031 59.6182 16.0078 59.8453 16.1819C59.881 16.2286 59.919 16.2741 59.9616 16.3167C60.0041 16.3593 60.0497 16.3973 60.0963 16.433C60.2704 16.6601 60.3751 16.9431 60.3751 17.2506C60.3753 17.9938 59.7707 18.5984 59.0276 18.5984Z" fill="black"/>
<path d="M44.8224 39.8679C45.1798 39.8679 45.5227 39.7259 45.7753 39.4732L48.8246 36.4238C49.3509 35.8975 49.3509 35.0442 48.8246 34.5178C48.2984 33.9917 47.4451 33.9917 46.9188 34.5178L44.8224 36.6143L38.1519 29.9439C37.6258 29.4178 36.7723 29.4178 36.246 29.9439C35.7198 30.4702 35.7198 31.3235 36.246 31.8499L43.8695 39.4732C44.1223 39.7259 44.4652 39.8679 44.8224 39.8679Z" fill="black"/>
<path d="M55.3046 28.038C54.7783 27.5119 53.925 27.5119 53.3986 28.038L51.6834 29.7533L49.7775 27.8476L51.4928 26.1323C52.0191 25.6061 52.0191 24.7527 51.4928 24.2264C50.9665 23.7002 50.1132 23.7002 49.5868 24.2264L47.8716 25.9416L45.9657 24.0358L47.681 22.3205C48.2073 21.7943 48.2074 20.9409 47.681 20.4146C47.1547 19.8886 46.3014 19.8884 45.7752 20.4146L43.107 23.0828C42.8543 23.3354 42.7122 23.6783 42.7122 24.0357C42.7122 24.3931 42.8543 24.7358 43.107 24.9886L50.7304 32.6119C50.9935 32.875 51.3385 33.0066 51.6834 33.0066C52.0282 33.0066 52.3732 32.875 52.6363 32.6119L55.3045 29.9437C55.8309 29.4176 55.8309 28.5643 55.3046 28.038Z" fill="black"/>
<path d="M40.399 43.5327C41.0619 43.8707 41.8736 43.6069 42.2116 42.9437C42.5495 42.2805 42.2857 41.4691 41.6224 41.1312L31.5214 35.9854C31.0012 35.7203 30.3696 35.8205 29.9568 36.2333C29.544 36.646 29.4439 37.2778 29.709 37.7979L34.8548 47.8988C35.0928 48.3662 35.5658 48.6352 36.0566 48.635C36.2624 48.635 36.4715 48.5877 36.6673 48.4879C37.3304 48.15 37.5942 47.3386 37.2565 46.6754L36.8433 45.8642L39.588 43.1194L40.399 43.5327ZM35.5567 43.3391L33.9929 40.2693L37.0628 41.8332L35.5567 43.3391Z" fill="black"/>
<path d="M27.4792 53.9577C26.9529 54.4839 26.9528 55.3373 27.4792 55.8636C27.7424 56.1267 28.0873 56.2584 28.4321 56.2584C28.777 56.2584 29.122 56.1267 29.385 55.8636L31.291 53.9578C32.8673 52.3815 32.8673 49.8166 31.291 48.2402C29.7927 46.7419 27.4021 46.6688 25.8153 48.0186C25.7659 48.056 25.718 48.0956 25.6731 48.1406L25.5734 48.2402C25.3188 48.4947 24.9804 48.6349 24.6205 48.6349C24.2605 48.6349 23.9221 48.4947 23.6675 48.2402C23.1421 47.7147 23.1421 46.8598 23.6675 46.3342L25.5734 44.4284C26.0996 43.9021 26.0998 43.0488 25.5734 42.5224C25.0471 41.9964 24.1938 41.9963 23.6675 42.5224L21.7616 44.4282C20.1852 46.0046 20.1852 48.5695 21.7616 50.146C22.5253 50.9096 23.5405 51.33 24.6203 51.33C25.6987 51.33 26.7127 50.9107 27.4762 50.1487C27.4772 50.1478 27.4783 50.147 27.4792 50.146C28.0045 49.6204 28.8596 49.6204 29.385 50.146C29.6396 50.4006 29.7798 50.7388 29.7798 51.0988C29.7798 51.4589 29.6396 51.7973 29.385 52.0517L27.4792 53.9577Z" fill="black"/>
<path d="M23.0903 8.69998C22.4423 8.33423 21.6202 8.56279 21.2543 9.21101L12.562 24.6083C12.1962 25.2566 12.4249 26.0785 13.0731 26.4444C13.2825 26.5626 13.5098 26.6187 13.7344 26.6187C14.2047 26.6187 14.6614 26.3721 14.9091 25.9333L23.6014 10.536C23.9673 9.88779 23.7386 9.06573 23.0903 8.69998Z" fill="black"/>
<path d="M16.8694 12.1285C16.8694 9.89895 15.0556 8.08514 12.8261 8.08514C10.5965 8.08514 8.78256 9.89895 8.78256 12.1285C8.78256 14.3581 10.5964 16.172 12.8259 16.172C15.0555 16.172 16.8694 14.3581 16.8694 12.1285ZM11.4779 12.1285C11.4779 11.3851 12.0826 10.7805 12.8259 10.7805C13.5693 10.7805 14.174 11.3851 14.174 12.1285C14.174 12.872 13.5693 13.4767 12.8259 13.4767C12.0826 13.4767 11.4779 12.872 11.4779 12.1285Z" fill="black"/>
<path d="M50.131 47.6147C49.7752 47.6147 49.4289 47.7589 49.1782 48.0097C48.9276 48.2602 48.7834 48.6079 48.7834 48.9623C48.7834 49.3169 48.9276 49.6646 49.1782 49.9151C49.4289 50.1658 49.7752 50.31 50.131 50.31C50.4854 50.31 50.8331 50.1659 51.0838 49.9151C51.3345 49.6646 51.4787 49.3169 51.4787 48.9623C51.4787 48.6079 51.3345 48.2602 51.0838 48.0097C50.8331 47.759 50.4854 47.6147 50.131 47.6147Z" fill="black"/>
</g>
<defs>
<clipPath id="clip0">
<rect width="69" height="69" fill="white"/>
</clipPath>
</defs>
</svg>
