<svg width="69" height="69" viewBox="0 0 69 69" fill="none" xmlns="http://www.w3.org/2000/svg">
<path d="M32.3438 60.375H36.6562V62.5312H32.3438V60.375Z" fill="black"/>
<path d="M32.3438 56.0625H36.6562V58.2188H32.3438V56.0625Z" fill="black"/>
<path d="M61.9922 49.0547L56.8172 36.6563H54.3375L53.5828 38.2735L43.7719 32.1281L45.8203 30.6188C49.4859 28.0313 51.8578 23.8266 52.0734 19.2985L52.2891 16.6031C52.6125 12.075 50.025 7.87034 45.8203 6.03752L39.675 3.2344C36.3328 1.83284 32.6672 1.83284 29.325 3.2344L23.0719 5.92971C18.8672 7.76252 16.3875 11.9672 16.6031 16.4953L16.8187 19.1906C17.1422 23.7188 19.4062 27.8156 23.0719 30.511L25.1203 32.0203L14.1234 38.9203C10.6734 41.0766 8.51718 44.85 8.51718 48.9469V66.8438H60.2672V57.1406C62.5312 54.9844 63.0703 51.8578 61.9922 49.0547ZM46.7906 36.5485L40.7531 41.0766C40.3219 41.4 39.675 41.4 39.3516 40.9688L36.3328 37.95L38.0578 37.0875C39.675 36.225 41.1844 35.1469 42.4781 33.7453L46.7906 36.5485ZM38.2734 42.9094L34.5 50.4563L30.7266 42.9094C30.8344 42.8016 31.05 42.6938 31.1578 42.586L34.5 39.2438L37.8422 42.586C37.95 42.6938 38.0578 42.8016 38.2734 42.9094ZM22.6406 18.6516V23.7188C22.6406 25.1203 22.8562 26.6297 23.2875 28.0313C20.8078 25.7672 19.1906 22.6406 18.975 19.1906L18.7594 16.4953C18.5437 12.8297 20.5922 9.48752 23.9344 7.97815L30.1875 5.28284C32.9906 4.0969 36.1172 4.0969 38.8125 5.28284L45.0656 7.97815C48.4078 9.48752 50.4562 12.8297 50.2406 16.4953L50.025 19.1906C49.8094 22.5328 48.3 25.7672 45.7125 28.0313C46.1437 26.6297 46.3594 25.2281 46.3594 23.7188V19.4063C46.3594 17.5735 44.9578 16.1719 43.125 16.1719H39.8906C38.7047 16.1719 37.7344 15.2016 37.7344 14.0156V10.2422L24.5812 15.7406C23.3953 16.1719 22.6406 17.3578 22.6406 18.6516ZM24.7969 23.7188V18.7594C24.7969 18.3281 25.0125 17.8969 25.4437 17.7891L35.5781 13.5844V14.0156C35.5781 16.3875 37.5187 18.3281 39.8906 18.3281H43.125C43.7719 18.3281 44.2031 18.7594 44.2031 19.4063V23.7188C44.2031 28.5703 41.4 33.0985 37.0875 35.2547L35.0391 36.3328C34.7156 36.4406 34.3922 36.4406 34.0687 36.3328L32.0203 35.2547C27.6 33.0985 24.7969 28.5703 24.7969 23.7188ZM26.5219 33.8531C27.8156 35.2547 29.2172 36.3328 30.9422 37.1953L32.6672 38.0578L29.6484 41.0766C29.2172 41.4 28.6781 41.5078 28.2469 41.1844L22.2094 36.6563L26.5219 33.8531ZM28.0312 64.6875H21.5625V51.75H19.4062V64.6875H10.7812V49.0547C10.7812 45.7125 12.5062 42.586 15.3094 40.861L20.1609 37.8422L26.8453 42.9094C27.2766 43.2328 27.9234 43.4485 28.4625 43.5563L32.5594 51.8578H28.0312V64.6875ZM38.8125 64.6875H30.1875V53.9063H38.8125V64.6875ZM58.2187 64.6875H40.9687V51.75H36.225L40.3219 43.4485C40.9687 43.4485 41.5078 43.2328 41.9391 42.8016L48.6234 37.7344L52.6125 40.2141L43.125 61.9922L45.0656 62.8547L49.8094 51.8578L52.1812 52.6125C53.3672 53.0438 54.0141 54.3375 53.5828 55.5235C53.2594 56.4938 52.3969 57.0328 51.4266 57.0328H50.6719V59.1891H55.2C56.2781 59.1891 57.2484 58.9735 58.2187 58.5422V64.6875ZM55.4156 57.1406C55.5234 56.925 55.6312 56.7094 55.7391 56.4938C56.6016 54.2297 55.5234 51.6422 53.2594 50.7797C53.1516 50.7797 53.1516 50.6719 53.0437 50.6719L50.8875 49.9172L55.5234 39.136L59.9437 49.8094C61.0219 52.5047 59.8359 55.5235 57.1406 56.6016C56.6016 56.925 56.0625 57.1406 55.4156 57.1406Z" fill="black"/>
<path d="M30.2887 23.3145H27.6602C27.0463 23.3145 26.5488 22.7023 26.5488 21.947C26.5488 21.1918 27.0463 20.5796 27.6602 20.5796H27.8021C27.8177 20.5268 27.8364 20.4739 27.8577 20.4226C28.1364 19.7496 28.8053 19.4825 29.3523 19.8249L30.7936 20.7287C31.2511 21.016 31.4895 21.6517 31.3696 22.2659C31.2494 22.8807 30.8027 23.3145 30.2887 23.3145Z" fill="black"/>
<path d="M41.3399 23.3145H38.7109C38.1973 23.3145 37.7506 22.8807 37.6304 22.2659C37.5106 21.6517 37.7485 21.0155 38.2065 20.7287L39.6477 19.8249C40.1947 19.4825 40.8636 19.7496 41.1423 20.4226C41.1636 20.4739 41.1823 20.5262 41.1975 20.5796H41.3399C41.9532 20.5796 42.4512 21.1918 42.4512 21.947C42.4512 22.7023 41.9532 23.3145 41.3399 23.3145Z" fill="black"/>
<path d="M34.5675 32.0742C33.7339 32.0742 32.9002 31.6696 32.2658 30.8611C31.8307 30.3061 31.8307 29.407 32.2654 28.8521C32.7001 28.2971 33.4054 28.2965 33.8405 28.8515C34.2416 29.3621 34.8934 29.3621 35.2941 28.8515C35.7292 28.2965 36.4345 28.2971 36.8692 28.8521C37.3043 29.407 37.3039 30.3061 36.8688 30.8611C36.2344 31.6696 35.4007 32.0742 34.5675 32.0742Z" fill="black"/>
</svg>
